PathFileType	4	(X/Y/Z)	D:\Share\Shared_Data\Ergonomics\Sit To Stand Pertubation\S3\S3 Cal 01.trc
DataRate	CameraRate	NumFrames	NumMarkers	Units	OrigDataRate	OrigDataStartFrame	OrigNumFrames	
100	100	6	21	mm	100	26	204
Frame#	Time	R_ASIS			R_Pelvis			V_Sacral			L_Pelvis			L_ASIS			Clavical			R_Acromium			L_Acromium			Sternum			Torso			R_Thigh_Med			R_Thigh_Lat			R_Thigh			R_Shank_Med			R_Shank_Lat			R_Shank			R_Heel			R_Toe			RAJC			RHJC			RKJC			
		X1	Y1	Z1	X2	Y2	Z2	X3	Y3	Z3	X4	Y4	Z4	X5	Y5	Z5	X6	Y6	Z6	X7	Y7	Z7	X8	Y8	Z8	X9	Y9	Z9	X10	Y10	Z10	X11	Y11	Z11	X12	Y12	Z12	X13	Y13	Z13	X14	Y14	Z14	X15	Y15	Z15	X16	Y16	Z16	X17	Y17	Z17	X18	Y18	Z18	X19	Y19	Z19	X20	Y20	Z20	X21	Y21	Z21	

26	0.25	305.06372	941.20032	126.94315	194.66197	954.87982	178.38956	91.577461	991.24933	-14.404528	203.52306	963.43793	-208.52379	305.07437	931.17017	-156.91068	268.94	1375.9792	-14.91609	186.77672	1426.4042	149.53532	210.44797	1426.3718	-170.11797	301.76633	1302.9584	-9.6085539	274.91583	1361.4977	-81.842934	256.8374	468.87534	31.500698	224.74568	457.47455	130.53198	312.22733	662.34247	89.260292	181.1577	104.97356	73.072586	166.9169	98.548248	155.83931	164.68126	285.04196	157.76271	110.23123	56.341393	114.72209	327.95905	56.069637	103.73408	174.0373	101.760904	114.455948	220.2563124	862.4050034	88.71340232	240.79154	463.174945	81.016339
27	0.26	305.00702	941.19531	126.94675	194.61282	954.89288	178.40735	91.566872	991.25104	-14.398816	203.54849	963.43689	-208.50082	305.05438	931.20416	-156.86162	269.02795	1375.9403	-15.002215	186.8087	1426.4025	149.50281	210.59964	1426.3792	-170.13075	301.84448	1302.9705	-9.5972099	275.00803	1361.532	-81.857887	256.8812	468.88846	31.523912	224.70406	457.47513	130.56241	312.17038	662.36877	89.286629	181.17061	104.90789	72.95594	166.80656	98.494728	155.82011	164.67821	285.02023	157.77576	110.26361	56.30761	114.7759	327.96698	56.078094	103.74733	173.988585	101.701309	114.388025	220.2169373	862.415037	88.70327483	240.79263	463.181795	81.043161
28	0.27	304.99509	941.19312	126.98253	194.57176	954.90845	178.43222	91.562225	991.2851	-14.388019	203.5685	963.44287	-208.49741	305.09253	931.19653	-156.81638	269.13123	1375.9136	-15.019595	186.85622	1426.4208	149.45561	210.72389	1426.3972	-170.16211	301.95731	1302.9893	-9.5584621	275.12683	1361.5651	-81.861481	256.7673	469.01483	31.531233	224.67787	457.4805	130.59598	312.1189	662.38348	89.322632	181.14314	104.95495	73.073669	166.81879	98.520348	155.85167	164.64581	284.98746	157.78801	110.21029	56.338852	114.73079	327.95877	56.078609	103.75063	173.980965	101.737649	114.4626695	220.1946297	862.4291001	88.72666081	240.722585	463.247665	81.0636065
29	0.28	304.90515	941.19305	126.99503	194.52498	954.90442	178.47345	91.559608	991.27014	-14.415364	203.59123	963.43964	-208.4706	305.1431	931.19476	-156.78784	269.24191	1375.9897	-14.937169	187.02129	1426.4961	149.49707	210.90184	1426.4243	-170.16756	302.0481	1302.9983	-9.5512323	275.25784	1361.5803	-81.857925	256.76624	468.97879	31.556576	224.60397	457.47	130.5768	312.07281	662.37439	89.396652	181.17677	104.97097	73.108276	166.84473	98.500053	155.87271	164.645	284.98312	157.81102	110.23511	56.295696	114.75629	327.95364	56.071648	103.7352	174.01075	101.7355115	114.490493	220.1334583	862.4279032	88.70054322	240.685105	463.224395	81.066688
30	0.29	304.92923	941.1983	127.06094	194.48744	954.91144	178.47777	91.553398	991.2934	-14.397364	203.60739	963.46259	-208.49896	305.17551	931.20209	-156.76059	269.33401	1376.0168	-14.914167	187.11107	1426.5312	149.4684	211.06508	1426.4142	-170.20438	302.13327	1303.0144	-9.5257502	275.40109	1361.6024	-81.825111	256.61929	469.03775	31.584259	224.58604	457.44788	130.59567	312.03201	662.35754	89.450745	181.17258	104.99233	73.136887	166.9344	98.515388	155.92439	164.66919	284.9505	157.80188	110.25411	56.298103	114.78206	327.95728	56.085529	103.75262	174.05349	101.753859	114.5306385	220.1440288	862.4277462	88.7566539	240.602665	463.242815	81.0899645
31	0.3	304.86465	941.19641	127.061	194.44597	954.91339	178.49699	91.534027	991.2995	-14.41023	203.63002	963.47101	-208.45706	305.20099	931.20319	-156.70618	269.43024	1376.0039	-14.910943	187.18755	1426.5459	149.50188	211.24335	1426.4495	-170.19408	302.22321	1303.0323	-9.4873743	275.51587	1361.6118	-81.843178	256.60834	469.0578	31.602375	224.61555	457.44873	130.6089	312.0076	662.35248	89.52932	181.15785	105.06139	73.278725	167.44781	98.242783	156.70944	164.72208	284.92865	157.80925	110.23985	56.304131	114.76335	327.95319	56.083698	103.74983	174.30283	101.6520865	114.9940825	220.0934485	862.4442719	88.73809453	240.611945	463.253265	81.1056375
